<svg width="65" height="65" viewBox="0 0 65 65" fill="none" xmlns="http://www.w3.org/2000/svg">
<path d="M32.5 36.5625C30.4913 36.5625 28.5277 35.9669 26.8575 34.8509C25.1873 33.7349 23.8856 32.1487 23.1169 30.2929C22.3482 28.4371 22.147 26.395 22.5389 24.4249C22.9308 22.4548 23.8981 20.6451 25.3185 19.2247C26.7388 17.8043 28.5485 16.837 30.5186 16.4452C32.4887 16.0533 34.5308 16.2544 36.3866 17.0231C38.2424 17.7918 39.8286 19.0936 40.9446 20.7637C42.0606 22.4339 42.6563 24.3975 42.6563 26.4063C42.653 29.0989 41.582 31.6803 39.678 33.5842C37.774 35.4882 35.1926 36.5593 32.5 36.5625ZM32.5 20.3125C31.2948 20.3125 30.1166 20.6699 29.1145 21.3395C28.1124 22.0091 27.3313 22.9608 26.8701 24.0743C26.4089 25.1878 26.2882 26.413 26.5233 27.5951C26.7585 28.7772 27.3388 29.863 28.1911 30.7152C29.0433 31.5674 30.1291 32.1478 31.3112 32.3829C32.4932 32.618 33.7185 32.4974 34.832 32.0361C35.9455 31.5749 36.8972 30.7939 37.5668 29.7918C38.2364 28.7897 38.5938 27.6115 38.5938 26.4063C38.5921 24.7906 37.9496 23.2416 36.8072 22.0991C35.6647 20.9567 34.1157 20.3141 32.5 20.3125Z" fill="#757575" fill-opacity="0.6"/>
<path d="M32.5 36.5625C30.4913 36.5625 28.5277 35.9669 26.8575 34.8509C25.1873 33.7349 23.8856 32.1487 23.1169 30.2929C22.3482 28.4371 22.147 26.395 22.5389 24.4249C22.9308 22.4548 23.8981 20.6451 25.3185 19.2247C26.7388 17.8043 28.5485 16.837 30.5186 16.4452C32.4887 16.0533 34.5308 16.2544 36.3866 17.0231C38.2424 17.7918 39.8286 19.0936 40.9446 20.7637C42.0606 22.4339 42.6563 24.3975 42.6563 26.4063C42.653 29.0989 41.582 31.6803 39.678 33.5842C37.774 35.4882 35.1926 36.5593 32.5 36.5625ZM32.5 20.3125C31.2948 20.3125 30.1166 20.6699 29.1145 21.3395C28.1124 22.0091 27.3313 22.9608 26.8701 24.0743C26.4089 25.1878 26.2882 26.413 26.5233 27.5951C26.7585 28.7772 27.3388 29.863 28.1911 30.7152C29.0433 31.5674 30.1291 32.1478 31.3112 32.3829C32.4932 32.618 33.7185 32.4974 34.832 32.0361C35.9455 31.5749 36.8972 30.7939 37.5668 29.7918C38.2364 28.7897 38.5938 27.6115 38.5938 26.4063C38.5921 24.7906 37.9496 23.2416 36.8072 22.0991C35.6647 20.9567 34.1157 20.3141 32.5 20.3125Z" fill="black" fill-opacity="0.2"/>
<path d="M32.5 60.9375L15.3644 40.7286C15.1263 40.4252 14.8906 40.1198 14.6575 39.8125C11.7319 35.956 10.1508 31.2469 10.1563 26.4062C10.1563 20.4803 12.5103 14.7971 16.7006 10.6068C20.8909 6.41657 26.5741 4.0625 32.5 4.0625C38.4259 4.0625 44.1092 6.41657 48.2994 10.6068C52.4897 14.7971 54.8438 20.4803 54.8438 26.4062C54.8485 31.2446 53.2682 35.9513 50.3445 39.8064L50.3425 39.8125C50.3425 39.8125 49.7331 40.6128 49.6417 40.7205L32.5 60.9375ZM17.9014 37.3648C17.9014 37.3648 18.3747 37.9905 18.4824 38.1245L32.5 54.6569L46.536 38.1022C46.6253 37.9905 47.1006 37.3608 47.1027 37.3587C49.4939 34.2086 50.7861 30.3612 50.7813 26.4062C50.7813 21.5578 48.8552 16.9079 45.4268 13.4795C41.9984 10.0511 37.3485 8.125 32.5 8.125C27.6515 8.125 23.0016 10.0511 19.5732 13.4795C16.1448 16.9079 14.2188 21.5578 14.2188 26.4062C14.2138 30.3637 15.5075 34.2135 17.9014 37.3648Z" fill="#757575" fill-opacity="0.6"/>
<path d="M32.5 60.9375L15.3644 40.7286C15.1263 40.4252 14.8906 40.1198 14.6575 39.8125C11.7319 35.956 10.1508 31.2469 10.1563 26.4062C10.1563 20.4803 12.5103 14.7971 16.7006 10.6068C20.8909 6.41657 26.5741 4.0625 32.5 4.0625C38.4259 4.0625 44.1092 6.41657 48.2994 10.6068C52.4897 14.7971 54.8438 20.4803 54.8438 26.4062C54.8485 31.2446 53.2682 35.9513 50.3445 39.8064L50.3425 39.8125C50.3425 39.8125 49.7331 40.6128 49.6417 40.7205L32.5 60.9375ZM17.9014 37.3648C17.9014 37.3648 18.3747 37.9905 18.4824 38.1245L32.5 54.6569L46.536 38.1022C46.6253 37.9905 47.1006 37.3608 47.1027 37.3587C49.4939 34.2086 50.7861 30.3612 50.7813 26.4062C50.7813 21.5578 48.8552 16.9079 45.4268 13.4795C41.9984 10.0511 37.3485 8.125 32.5 8.125C27.6515 8.125 23.0016 10.0511 19.5732 13.4795C16.1448 16.9079 14.2188 21.5578 14.2188 26.4062C14.2138 30.3637 15.5075 34.2135 17.9014 37.3648Z" fill="black" fill-opacity="0.2"/>
</svg>
