<svg width="31" height="30" viewBox="0 0 31 30" fill="none" xmlns="http://www.w3.org/2000/svg">
<path d="M25.8127 15.7125V14.2781L27.6127 12.7031C27.9445 12.4107 28.1622 12.0103 28.2274 11.5729C28.2926 11.1354 28.201 10.689 27.9689 10.3125L25.7564 6.5625C25.592 6.27775 25.3556 6.04123 25.071 5.87668C24.7863 5.71213 24.4634 5.62534 24.1345 5.625C23.9308 5.62344 23.7281 5.6551 23.5345 5.71875L21.2564 6.4875C20.8636 6.22528 20.4533 5.99035 20.0283 5.78438L19.5502 3.42187C19.4644 2.99025 19.2296 2.60254 18.8869 2.3266C18.5441 2.05065 18.1151 1.90407 17.6752 1.9125H13.2877C12.8477 1.90407 12.4188 2.05065 12.076 2.3266C11.7332 2.60254 11.4984 2.99025 11.4127 3.42187L10.9346 5.78438C10.507 5.99124 10.0936 6.22612 9.69705 6.4875L7.4658 5.68125C7.27014 5.63027 7.06753 5.61128 6.8658 5.625C6.537 5.62534 6.21406 5.71213 5.92939 5.87668C5.64472 6.04123 5.40833 6.27775 5.24393 6.5625L3.03143 10.3125C2.8126 10.6884 2.73129 11.1287 2.80141 11.558C2.87153 11.9873 3.08873 12.3789 3.4158 12.6656L5.18768 14.2875V15.7219L3.4158 17.2969C3.07949 17.5856 2.85635 17.9842 2.78599 18.4218C2.71562 18.8595 2.80258 19.3079 3.03143 19.6875L5.24393 23.4375C5.40833 23.7223 5.64472 23.9588 5.92939 24.1233C6.21406 24.2879 6.537 24.3747 6.8658 24.375C7.06957 24.3766 7.27222 24.3449 7.4658 24.2812L9.74393 23.5125C10.1367 23.7747 10.5471 24.0096 10.9721 24.2156L11.4502 26.5781C11.5359 27.0097 11.7707 27.3975 12.1135 27.6734C12.4563 27.9493 12.8852 28.0959 13.3252 28.0875H17.7502C18.1901 28.0959 18.6191 27.9493 18.9619 27.6734C19.3046 27.3975 19.5394 27.0097 19.6252 26.5781L20.1033 24.2156C20.5308 24.0088 20.9442 23.7739 21.3408 23.5125L23.6095 24.2812C23.8031 24.3449 24.0058 24.3766 24.2095 24.375C24.5384 24.3747 24.8613 24.2879 25.146 24.1233C25.4306 23.9588 25.667 23.7223 25.8314 23.4375L27.9689 19.6875C28.1877 19.3116 28.2691 18.8713 28.1989 18.442C28.1288 18.0127 27.9116 17.6211 27.5845 17.3344L25.8127 15.7125ZM24.1345 22.5L20.9189 21.4125C20.1657 22.0494 19.3055 22.5478 18.3783 22.8844L17.7127 26.25H13.2877L12.6221 22.9219C11.7021 22.5758 10.8466 22.0783 10.0908 21.45L6.8658 22.5L4.6533 18.75L7.2033 16.5C7.02995 15.5296 7.02995 14.5361 7.2033 13.5656L4.6533 11.25L6.8658 7.5L10.0814 8.5875C10.8346 7.95055 11.6948 7.45221 12.6221 7.11563L13.2877 3.75H17.7127L18.3783 7.07813C19.2982 7.42416 20.1538 7.92165 20.9095 8.55L24.1345 7.5L26.347 11.25L23.797 13.5C23.9704 14.4704 23.9704 15.4639 23.797 16.4344L26.347 18.75L24.1345 22.5Z" fill="#D9D9D9"/>
<path d="M15.5 20.625C14.3875 20.625 13.2999 20.2951 12.3749 19.677C11.4499 19.0589 10.7289 18.1804 10.3032 17.1526C9.87744 16.1248 9.76604 14.9938 9.98309 13.9026C10.2001 12.8115 10.7359 11.8092 11.5225 11.0225C12.3092 10.2359 13.3115 9.70013 14.4026 9.48308C15.4938 9.26604 16.6248 9.37744 17.6526 9.80318C18.6804 10.2289 19.5589 10.9499 20.177 11.8749C20.7951 12.7999 21.125 13.8875 21.125 15C21.1325 15.7408 20.9922 16.4756 20.7121 17.1615C20.4321 17.8473 20.0181 18.4704 19.4942 18.9942C18.9704 19.5181 18.3473 19.9321 17.6615 20.2121C16.9756 20.4922 16.2408 20.6325 15.5 20.625ZM15.5 11.25C15.0044 11.2385 14.5116 11.3276 14.0514 11.5119C13.5912 11.6963 13.1732 11.9721 12.8226 12.3226C12.4721 12.6732 12.1963 13.0912 12.0119 13.5514C11.8276 14.0116 11.7385 14.5044 11.75 15C11.7385 15.4956 11.8276 15.9884 12.0119 16.4486C12.1963 16.9088 12.4721 17.3268 12.8226 17.6774C13.1732 18.0279 13.5912 18.3037 14.0514 18.4881C14.5116 18.6724 15.0044 18.7615 15.5 18.75C15.9956 18.7615 16.4884 18.6724 16.9486 18.4881C17.4088 18.3037 17.8268 18.0279 18.1774 17.6774C18.5279 17.3268 18.8037 16.9088 18.9881 16.4486C19.1724 15.9884 19.2615 15.4956 19.25 15C19.2615 14.5044 19.1724 14.0116 18.9881 13.5514C18.8037 13.0912 18.5279 12.6732 18.1774 12.3226C17.8268 11.9721 17.4088 11.6963 16.9486 11.5119C16.4884 11.3276 15.9956 11.2385 15.5 11.25Z" fill="#D9D9D9"/>
</svg>
