<svg width="31" height="30" viewBox="0 0 31 30" fill="none" xmlns="http://www.w3.org/2000/svg">
<path fill-rule="evenodd" clip-rule="evenodd" d="M28.1996 6.53437L26.7371 6.18937L22.7846 10.1194L20.5459 7.83937L24.4009 3.795L24.0634 2.31C23.2489 2.03687 22.3967 1.89263 21.5377 1.8825C20.6005 1.86591 19.6702 2.04471 18.8059 2.4075C17.9702 2.78454 17.2151 3.31932 16.5821 3.9825C15.8751 4.64947 15.3162 5.45755 14.9415 6.35437C14.2171 8.13735 14.2171 10.1326 14.9415 11.9156C11.0325 15.7612 7.17405 19.6578 3.36711 23.6044C2.97336 24.12 2.78586 24.7631 2.83461 25.41C2.85333 25.7546 2.93981 26.0921 3.08909 26.4032C3.23838 26.7143 3.44754 26.9929 3.70461 27.2231C3.93961 27.4794 4.21273 27.6844 4.52398 27.8381C4.84273 27.9787 5.18586 28.0594 5.53273 28.0762C6.12523 28.065 6.69336 27.84 7.13398 27.4444C10.0365 24.7125 15.5977 19.1006 18.7571 15.8119C19.614 16.1756 20.5346 16.3631 21.4646 16.3612C22.4007 16.3601 23.3271 16.1715 24.1891 15.8067C25.0512 15.4418 25.8315 14.9081 26.484 14.2369C27.8212 12.8688 28.569 11.0312 28.5671 9.11812C28.5892 8.24242 28.465 7.36919 28.1996 6.53437ZM5.99961 26.115C5.92791 26.1798 5.84073 26.225 5.74648 26.2462C5.65418 26.2637 5.55941 26.2637 5.46711 26.2462C5.37026 26.2312 5.278 26.1947 5.19711 26.1394C5.11061 26.0884 5.03738 26.0177 4.98336 25.9331C4.72086 25.665 4.47523 25.155 4.72086 24.8681C7.28961 22.1362 12.579 16.7962 15.8865 13.5319C16.074 13.7806 16.279 14.0156 16.5015 14.2369C16.7227 14.4681 16.9602 14.6812 17.214 14.8762C14.0152 18.1575 8.79711 23.4337 5.99961 26.115ZM26.8459 9.11812C26.8496 10.5525 26.2909 11.9306 25.2859 12.9581C24.2832 13.9424 22.9343 14.4938 21.5293 14.4938C20.1243 14.4938 18.7754 13.9424 17.7727 12.9581C17.0373 12.1913 16.5349 11.2313 16.3241 10.1899C16.1133 9.14854 16.2028 8.06872 16.5821 7.07625C16.8345 6.40086 17.2257 5.78591 17.7305 5.27111C18.2353 4.75631 18.8424 4.35309 19.5127 4.0875C20.1499 3.82299 20.8329 3.68664 21.5227 3.68625H21.999L18.5921 7.19812V8.50312L22.1452 12.0394H23.3827L26.8459 8.63437V9.11812ZM6.57523 12.54H9.44586L10.7677 13.8844L12.039 12.6206L10.7921 11.3494V11.2687L10.899 8.17687L10.4865 7.3575L5.12398 3.82875L4.01586 3.9525L2.45773 5.54437L2.33398 6.6675L5.78023 12.1387L6.57523 12.54ZM4.80336 5.73L9.14211 8.58749L9.06898 10.6931H7.05148L4.25398 6.26437L4.80336 5.73ZM18.1252 18.78L19.389 17.5181L25.2127 23.49C25.7028 24.0058 25.9761 24.6901 25.9761 25.4016C25.9761 26.113 25.7028 26.7974 25.2127 27.3131C24.8445 27.6927 24.3701 27.9522 23.8519 28.0575C23.3336 28.1629 22.7956 28.1093 22.3084 27.9037C21.997 27.7662 21.7179 27.565 21.489 27.3131L15.5977 21.3075L16.8709 20.0362L22.7434 26.025C22.8222 26.1122 22.9205 26.1796 23.0302 26.2219C23.2462 26.3089 23.4874 26.3089 23.7034 26.2219C23.8131 26.1796 23.9114 26.1122 23.9902 26.025C24.074 25.9451 24.1382 25.8469 24.1777 25.7381C24.2218 25.6284 24.2447 25.5113 24.2452 25.3931C24.2416 25.2754 24.2194 25.159 24.1796 25.0481C24.1401 24.9393 24.0759 24.8411 23.9921 24.7612L18.1252 18.78Z" fill="#D9D9D9"/>
</svg>
