<svg width="31" height="26" viewBox="0 0 31 26" fill="none" xmlns="http://www.w3.org/2000/svg">
<path opacity="0.7" d="M28 0.5H3C1.6375 0.555556 0.55 1.76389 0.5 3.27778V22.7222C0.55 24.2361 1.6375 25.4444 3 25.5H28C29.3625 25.4444 30.45 24.2361 30.5 22.7222V3.27778C30.477 2.5492 30.2062 1.85742 29.7423 1.34192C29.2783 0.826427 28.6557 0.525563 28 0.5ZM28 22.7222H3V3.27778H28V22.7222ZM18 19.9444V18.2083C18 15.9028 13.825 14.7361 11.75 14.7361C9.675 14.7361 5.5 15.9028 5.5 18.2083V19.9444H18ZM11.75 6.05556C10.9212 6.05556 10.1263 6.42138 9.54029 7.07255C8.95424 7.72371 8.625 8.60689 8.625 9.52778C8.625 9.98376 8.70583 10.4353 8.86287 10.8565C9.01992 11.2778 9.25011 11.6606 9.54029 11.983C10.1263 12.6342 10.9212 13 11.75 13C12.1604 13 12.5667 12.9102 12.9459 12.7357C13.325 12.5612 13.6695 12.3054 13.9597 11.983C14.2499 11.6606 14.4801 11.2778 14.6371 10.8565C14.7942 10.4353 14.875 9.98376 14.875 9.52778C14.875 9.0718 14.7942 8.62029 14.6371 8.19902C14.4801 7.77775 14.2499 7.39497 13.9597 7.07255C13.6695 6.75012 13.325 6.49436 12.9459 6.31986C12.5667 6.14537 12.1604 6.05556 11.75 6.05556ZM18 6.05556V7.44444H25.5V6.05556H18ZM18 8.83333V10.2222H25.5V8.83333H18ZM18 11.6111V13H23V11.6111H18Z" fill="#D9D9D9"/>
</svg>
