<svg width="31" height="30" viewBox="0 0 31 30" fill="none" xmlns="http://www.w3.org/2000/svg">
<path d="M15.5 5C16.8261 5 18.0979 5.52678 19.0355 6.46447C19.9732 7.40215 20.5 8.67392 20.5 10C20.5 11.3261 19.9732 12.5979 19.0355 13.5355C18.0979 14.4732 16.8261 15 15.5 15C14.1739 15 12.9021 14.4732 11.9645 13.5355C11.0268 12.5979 10.5 11.3261 10.5 10C10.5 8.67392 11.0268 7.40215 11.9645 6.46447C12.9021 5.52678 14.1739 5 15.5 5ZM15.5 7.5C14.837 7.5 14.2011 7.76339 13.7322 8.23223C13.2634 8.70107 13 9.33696 13 10C13 10.663 13.2634 11.2989 13.7322 11.7678C14.2011 12.2366 14.837 12.5 15.5 12.5C16.163 12.5 16.7989 12.2366 17.2678 11.7678C17.7366 11.2989 18 10.663 18 10C18 9.33696 17.7366 8.70107 17.2678 8.23223C16.7989 7.76339 16.163 7.5 15.5 7.5ZM15.5 16.25C18.8375 16.25 25.5 17.9125 25.5 21.25V25H5.5V21.25C5.5 17.9125 12.1625 16.25 15.5 16.25ZM15.5 18.625C11.7875 18.625 7.875 20.45 7.875 21.25V22.625H23.125V21.25C23.125 20.45 19.2125 18.625 15.5 18.625Z" fill="#D9D9D9"/>
</svg>
