<svg width="31" height="30" viewBox="0 0 31 30" fill="none" xmlns="http://www.w3.org/2000/svg">
<g clip-path="url(#clip0_2225_1221)">
<path d="M20.2052 5C20.9015 5.00002 21.5841 5.19392 22.1764 5.55996C22.7688 5.926 23.2475 6.44974 23.559 7.0725L25.2877 10.5287C25.5927 10.4037 25.8965 10.2775 26.1915 10.1312C26.4882 9.98306 26.8316 9.95881 27.1462 10.0638C27.4608 10.1688 27.7208 10.3945 27.869 10.6912C28.0172 10.988 28.0414 11.3314 27.9364 11.646C27.8314 11.9606 27.6057 12.2206 27.309 12.3688C26.6915 12.6762 26.409 12.7712 26.409 12.7712L27.604 15.1625C27.8652 15.6837 28.0002 16.2575 28.0002 16.84V20C28.0002 20.5276 27.8889 21.0493 27.6735 21.5309C27.4581 22.0125 27.1435 22.4433 26.7502 22.795V24.375C26.7502 24.8723 26.5527 25.3492 26.201 25.7008C25.8494 26.0525 25.3725 26.25 24.8752 26.25C24.3779 26.25 23.901 26.0525 23.5494 25.7008C23.1978 25.3492 23.0002 24.8723 23.0002 24.375V23.75H8.00021V24.375C8.00021 24.8723 7.80267 25.3492 7.45104 25.7008C7.09941 26.0525 6.62249 26.25 6.12521 26.25C5.62793 26.25 5.15102 26.0525 4.79939 25.7008C4.44776 25.3492 4.25021 24.8723 4.25021 24.375V22.795C3.48271 22.1075 3.00021 21.11 3.00021 20V16.84C3.00045 16.2581 3.13611 15.6842 3.39646 15.1637L4.59146 12.7712C4.2886 12.6459 3.98931 12.5121 3.69396 12.37C3.54662 12.2969 3.41516 12.1954 3.30711 12.0714C3.19905 11.9474 3.11653 11.8033 3.06428 11.6474C3.01202 11.4914 2.99106 11.3267 3.00259 11.1626C3.01412 10.9985 3.05791 10.8384 3.13146 10.6912C3.28268 10.3958 3.54413 10.1719 3.85924 10.0678C4.17435 9.96366 4.51778 9.98781 4.81521 10.135C5.11021 10.2767 5.40938 10.4079 5.71271 10.5287L7.44146 7.0725C7.75295 6.44974 8.23167 5.926 8.82401 5.55996C9.41635 5.19392 10.0989 5.00002 10.7952 5H20.2052ZM24.0427 13.63C21.9177 14.3012 18.894 15 15.5002 15C12.1065 15 9.08271 14.3 6.95771 13.63L5.63271 16.28C5.54559 16.4538 5.50023 16.6456 5.50021 16.84V20C5.50021 20.3315 5.63191 20.6495 5.86633 20.8839C6.10075 21.1183 6.41869 21.25 6.75021 21.25H24.2502C24.5817 21.25 24.8997 21.1183 25.1341 20.8839C25.3685 20.6495 25.5002 20.3315 25.5002 20V16.84C25.5 16.646 25.4546 16.4547 25.3677 16.2812L24.0427 13.63ZM9.87521 16.25C10.3725 16.25 10.8494 16.4475 11.201 16.7992C11.5527 17.1508 11.7502 17.6277 11.7502 18.125C11.7502 18.6223 11.5527 19.0992 11.201 19.4508C10.8494 19.8025 10.3725 20 9.87521 20C9.37793 20 8.90102 19.8025 8.54939 19.4508C8.19776 19.0992 8.00021 18.6223 8.00021 18.125C8.00021 17.6277 8.19776 17.1508 8.54939 16.7992C8.90102 16.4475 9.37793 16.25 9.87521 16.25ZM21.1252 16.25C21.6225 16.25 22.0994 16.4475 22.451 16.7992C22.8027 17.1508 23.0002 17.6277 23.0002 18.125C23.0002 18.6223 22.8027 19.0992 22.451 19.4508C22.0994 19.8025 21.6225 20 21.1252 20C20.6279 20 20.151 19.8025 19.7994 19.4508C19.4478 19.0992 19.2502 18.6223 19.2502 18.125C19.2502 17.6277 19.4478 17.1508 19.7994 16.7992C20.151 16.4475 20.6279 16.25 21.1252 16.25ZM20.2052 7.5H10.7952C10.5631 7.50012 10.3357 7.56485 10.1383 7.68694C9.94094 7.80903 9.78145 7.98365 9.67771 8.19125L8.09021 11.3625C10.0252 11.9437 12.6327 12.5 15.5002 12.5C18.3677 12.5 20.9752 11.9437 22.909 11.3625L21.3227 8.19125C21.219 7.98365 21.0595 7.80903 20.8621 7.68694C20.6648 7.56485 20.4373 7.50012 20.2052 7.5Z" fill="#D9D9D9"/>
</g>
<defs>
<clipPath id="clip0_2225_1221">
<rect width="30" height="30" fill="white" transform="translate(0.5)"/>
</clipPath>
</defs>
</svg>
