<svg width="31" height="30" viewBox="0 0 31 30" fill="none" xmlns="http://www.w3.org/2000/svg">
<path d="M22.0625 2.8125H8.9375C7.94294 2.8125 6.98911 3.20759 6.28585 3.91085C5.58259 4.61411 5.1875 5.56794 5.1875 6.5625V21.5625C5.1875 22.5571 5.58259 23.5109 6.28585 24.2141C6.98911 24.9174 7.94294 25.3125 8.9375 25.3125H9.875L8.1875 27.5625C8.11363 27.661 8.05989 27.7731 8.02933 27.8923C7.99878 28.0116 7.99201 28.1357 8.00942 28.2576C8.02683 28.3795 8.06808 28.4967 8.13081 28.6026C8.19353 28.7086 8.27651 28.8011 8.375 28.875C8.47349 28.9489 8.58557 29.0026 8.70483 29.0332C8.82409 29.0637 8.94821 29.0705 9.07008 29.0531C9.19196 29.0357 9.30921 28.9944 9.41515 28.9317C9.52109 28.869 9.61363 28.786 9.6875 28.6875L12.2188 25.3125H18.7812L21.3125 28.6875C21.4617 28.8864 21.6838 29.0179 21.9299 29.0531C22.1761 29.0882 22.4261 29.0242 22.625 28.875C22.8239 28.7258 22.9554 28.5037 22.9906 28.2576C23.0257 28.0114 22.9617 27.7614 22.8125 27.5625L21.125 25.3125H22.0625C23.0571 25.3125 24.0109 24.9174 24.7141 24.2141C25.4174 23.5109 25.8125 22.5571 25.8125 21.5625V6.5625C25.8125 5.56794 25.4174 4.61411 24.7141 3.91085C24.0109 3.20759 23.0571 2.8125 22.0625 2.8125ZM7.0625 14.0625V9.375H14.5625V14.0625H7.0625ZM16.4375 9.375H23.9375V14.0625H16.4375V9.375ZM8.9375 4.6875H22.0625C22.5598 4.6875 23.0367 4.88504 23.3883 5.23667C23.74 5.58831 23.9375 6.06522 23.9375 6.5625V7.5H7.0625V6.5625C7.0625 6.06522 7.26004 5.58831 7.61167 5.23667C7.96331 4.88504 8.44022 4.6875 8.9375 4.6875ZM22.0625 23.4375H8.9375C8.44022 23.4375 7.96331 23.24 7.61167 22.8883C7.26004 22.5367 7.0625 22.0598 7.0625 21.5625V15.9375H23.9375V21.5625C23.9375 22.0598 23.74 22.5367 23.3883 22.8883C23.0367 23.24 22.5598 23.4375 22.0625 23.4375ZM11.75 20.1562C11.75 20.4344 11.6675 20.7063 11.513 20.9375C11.3585 21.1688 11.1389 21.349 10.8819 21.4555C10.6249 21.5619 10.3422 21.5897 10.0694 21.5355C9.79662 21.4812 9.54605 21.3473 9.34938 21.1506C9.15271 20.954 9.01878 20.7034 8.96452 20.4306C8.91026 20.1578 8.93811 19.8751 9.04454 19.6181C9.15098 19.3611 9.33122 19.1415 9.56248 18.987C9.79374 18.8325 10.0656 18.75 10.3438 18.75C10.7167 18.75 11.0744 18.8982 11.3381 19.1619C11.6018 19.4256 11.75 19.7833 11.75 20.1562ZM22.0625 20.1562C22.0625 20.4344 21.98 20.7063 21.8255 20.9375C21.671 21.1688 21.4514 21.349 21.1944 21.4555C20.9374 21.5619 20.6547 21.5897 20.3819 21.5355C20.1091 21.4812 19.8585 21.3473 19.6619 21.1506C19.4652 20.954 19.3313 20.7034 19.277 20.4306C19.2228 20.1578 19.2506 19.8751 19.357 19.6181C19.4635 19.3611 19.6437 19.1415 19.875 18.987C20.1062 18.8325 20.3781 18.75 20.6562 18.75C21.0292 18.75 21.3869 18.8982 21.6506 19.1619C21.9143 19.4256 22.0625 19.7833 22.0625 20.1562Z" fill="#D9D9D9"/>
</svg>
