<svg width="31" height="30" viewBox="0 0 31 30" fill="none" xmlns="http://www.w3.org/2000/svg">
<path d="M15.5 15.625C14.3397 15.625 13.2269 16.0859 12.4064 16.9064C11.5859 17.7269 11.125 18.8397 11.125 20C11.125 21.1603 11.5859 22.2731 12.4064 23.0936C13.2269 23.9141 14.3397 24.375 15.5 24.375C16.6603 24.375 17.7731 23.9141 18.5936 23.0936C19.4141 22.2731 19.875 21.1603 19.875 20C19.875 18.8397 19.4141 17.7269 18.5936 16.9064C17.7731 16.0859 16.6603 15.625 15.5 15.625ZM13.625 20C13.625 19.5027 13.8225 19.0258 14.1742 18.6742C14.5258 18.3225 15.0027 18.125 15.5 18.125C15.9973 18.125 16.4742 18.3225 16.8258 18.6742C17.1775 19.0258 17.375 19.5027 17.375 20C17.375 20.4973 17.1775 20.9742 16.8258 21.3258C16.4742 21.6775 15.9973 21.875 15.5 21.875C15.0027 21.875 14.5258 21.6775 14.1742 21.3258C13.8225 20.9742 13.625 20.4973 13.625 20Z" fill="#D9D9D9"/>
<path d="M22.4075 6.395L18.4338 0.823746L3.8225 12.4962L3.0125 12.4875V12.5H2.375V27.5H28.625V12.5H27.4225L25.03 5.50125L22.4075 6.395ZM24.7812 12.5H12.2463L21.5825 9.3175L23.485 8.70875L24.7812 12.5ZM19.9375 7.2375L10.3 10.5225L17.9325 4.425L19.9375 7.2375ZM4.875 22.7112V17.2862C5.40272 17.1 5.88206 16.798 6.27788 16.4024C6.6737 16.0068 6.97596 15.5276 7.1625 15H23.8375C24.0239 15.5278 24.3261 16.0073 24.7219 16.4031C25.1177 16.7989 25.5972 17.1011 26.125 17.2875V22.7125C25.5972 22.8989 25.1177 23.2011 24.7219 23.5969C24.3261 23.9927 24.0239 24.4721 23.8375 25H7.165C6.97773 24.4721 6.67496 23.9927 6.27877 23.5967C5.88259 23.2007 5.403 22.8982 4.875 22.7112Z" fill="#D9D9D9"/>
</svg>
