<svg width="35" height="36" viewBox="0 0 35 36" fill="none" xmlns="http://www.w3.org/2000/svg">
<path d="M15.3125 8.52082C15.3125 8.32744 15.3893 8.14197 15.5261 8.00522C15.6628 7.86848 15.8483 7.79166 16.0417 7.79166H18.9583C19.1517 7.79166 19.3372 7.86848 19.4739 8.00522C19.6107 8.14197 19.6875 8.32744 19.6875 8.52082C19.6875 8.71421 19.6107 8.89968 19.4739 9.03642C19.3372 9.17317 19.1517 9.24999 18.9583 9.24999H16.0417C15.8483 9.24999 15.6628 9.17317 15.5261 9.03642C15.3893 8.89968 15.3125 8.71421 15.3125 8.52082Z" fill="#D9D9D9"/>
<path fill-rule="evenodd" clip-rule="evenodd" d="M24.3278 14.0042C24.0631 14.212 23.7197 14.3782 23.3055 14.5131C23.324 14.7008 23.3332 14.8908 23.3332 15.0833C23.3329 15.8732 23.1722 16.6548 22.8608 17.3807C22.5494 18.1066 22.0938 18.7617 21.5216 19.3063C20.9495 19.8509 20.2727 20.2736 19.5323 20.5488C18.7919 20.824 18.0034 20.946 17.2144 20.9074C16.4255 20.8687 15.6526 20.6702 14.9427 20.324C14.2327 19.9777 13.6005 19.4909 13.0844 18.893C12.5682 18.2951 12.1788 17.5986 11.9399 16.8457C11.7009 16.0928 11.6174 15.2993 11.6942 14.5131C11.2801 14.3782 10.9366 14.212 10.6727 14.0042C10.33 13.7344 10.1003 13.3742 10.0733 12.941C10.0478 12.5393 10.2067 12.198 10.3657 11.9574C10.5226 11.7294 10.7089 11.5232 10.9199 11.3442C11.0229 11.2547 11.1216 11.1752 11.2159 11.1057C11.1877 10.9555 11.1581 10.7757 11.127 10.5661C10.9984 9.64695 10.9351 8.71981 10.9374 7.79167C10.9374 7.56271 11.0351 7.39208 11.0803 7.3199C11.1372 7.22875 11.2042 7.15073 11.2655 7.08802C11.3873 6.96042 11.5448 6.83063 11.7176 6.70594C12.0676 6.45219 12.5488 6.16708 13.1205 5.90021C14.2602 5.36792 15.8257 4.875 17.4999 4.875C19.174 4.875 20.7396 5.36865 21.8792 5.90021C22.3708 6.12488 22.8404 6.39461 23.2822 6.70594C23.455 6.83063 23.6125 6.96115 23.7342 7.08802C23.7955 7.15073 23.8626 7.22875 23.9195 7.3199C23.9647 7.39208 24.0624 7.56271 24.0624 7.79167C24.0624 8.95979 23.9676 9.90625 23.8728 10.5661C23.8417 10.7761 23.812 10.956 23.7838 11.1057C23.8772 11.175 23.9785 11.2545 24.0806 11.3442C24.2629 11.5039 24.4714 11.7117 24.634 11.9574C24.7937 12.198 24.952 12.5393 24.9272 12.9418C24.9002 13.3742 24.6705 13.7344 24.3278 14.0042ZM12.3972 8.02354C12.4081 9.00646 12.4898 9.80125 12.5707 10.3569C12.5902 10.4881 12.6086 10.6053 12.6261 10.7083H22.3736C22.3916 10.6048 22.4101 10.4876 22.429 10.3569C22.5092 9.80125 22.5916 9.00646 22.6026 8.02354C22.5458 7.97563 22.4871 7.9299 22.4268 7.88646C22.1636 7.69615 21.764 7.45625 21.2624 7.22219C20.2539 6.75115 18.9028 6.33333 17.4999 6.33333C16.097 6.33333 14.7458 6.75115 13.7374 7.22219C13.2357 7.45625 12.8361 7.69615 12.5736 7.88573C12.513 7.92963 12.4542 7.97585 12.3972 8.02427M12.2411 12.1667L12.2389 12.1681C12.1131 12.2519 11.9925 12.3435 11.878 12.4423C11.7482 12.556 11.6447 12.6669 11.582 12.7631C11.5674 12.785 11.554 12.8076 11.5419 12.8309L11.5739 12.8579C11.6833 12.944 11.9181 13.0701 12.376 13.1948C12.4664 13.2191 12.5634 13.2429 12.667 13.2663L12.6735 13.2677C13.0396 13.3486 13.4902 13.4208 14.0392 13.4777C14.8173 13.5586 15.7965 13.6119 17.0201 13.6235L17.4999 13.625C19.8529 13.625 21.3747 13.4784 22.327 13.2677L22.3328 13.2663C22.4368 13.2434 22.534 13.2196 22.6245 13.1948C23.0816 13.0708 23.3172 12.944 23.4258 12.8579L23.4579 12.8309C23.446 12.8076 23.4328 12.785 23.4185 12.7631C23.3334 12.6442 23.2337 12.5364 23.1217 12.4423C23.0075 12.3435 22.8872 12.252 22.7615 12.1681L22.7586 12.1667H12.2411ZM17.3015 15.0833C19.228 15.0833 20.7213 14.9813 21.8661 14.8033C21.872 14.8957 21.8749 14.989 21.8749 15.0833C21.8744 15.6672 21.757 16.2451 21.5296 16.7829C21.3023 17.3207 20.9696 17.8075 20.5512 18.2148C20.1328 18.622 19.6371 18.9413 19.0933 19.154C18.5495 19.3666 17.9687 19.4683 17.385 19.453C16.8013 19.4376 16.2266 19.3056 15.6948 19.0647C15.1629 18.8238 14.6846 18.4789 14.2882 18.0502C13.8917 17.6216 13.585 17.118 13.3862 16.569C13.1875 16.02 13.1006 15.4367 13.1307 14.8536C14.1975 15.0009 15.5647 15.0833 17.3015 15.0833ZM11.7234 28.8478C11.6853 29.1191 11.6662 29.3927 11.6665 29.6667V30.3958C11.6666 30.5561 11.6139 30.712 11.5165 30.8393C11.4191 30.9666 11.2824 31.0583 11.1277 31.1001C10.973 31.1419 10.8087 31.1316 10.6605 31.0708C10.5122 31.0099 10.3881 30.9018 10.3074 30.7633C9.81571 31.0292 9.24094 31.0968 8.70102 30.9522L7.29227 30.5745C6.7321 30.4241 6.25457 30.0574 5.96469 29.5551C5.6748 29.0527 5.5963 28.4558 5.74644 27.8955L6.31227 25.7824C6.46248 25.2221 6.8291 24.7444 7.33149 24.4544C7.83388 24.1643 8.43089 24.0857 8.99123 24.2358L10.4 24.6128C10.89 24.7441 11.2969 25.0321 11.5798 25.4083C12.2549 24.4689 13.1441 23.7038 14.1737 23.1763C15.2033 22.6488 16.3437 22.3741 17.5006 22.375C18.6568 22.3744 19.7966 22.6491 20.8257 23.1763C21.8547 23.7035 22.7435 24.4681 23.4185 25.4069C23.7121 25.0187 24.1268 24.7395 24.5968 24.6135L26.0056 24.2366C26.5658 24.0864 27.1628 24.1649 27.6651 24.4548C28.1675 24.7447 28.5342 25.2222 28.6846 25.7824L29.2511 27.8963C29.3254 28.1738 29.3444 28.4632 29.3068 28.748C29.2693 29.0328 29.176 29.3074 29.0323 29.5562C28.8886 29.805 28.6974 30.023 28.4694 30.1978C28.2415 30.3727 27.9813 30.5009 27.7038 30.5752L26.2958 30.9522C25.7568 31.0969 25.183 31.0301 24.6916 30.7655C24.6107 30.9038 24.4864 31.0116 24.3381 31.0722C24.1897 31.1328 24.0255 31.1428 23.8709 31.1007C23.7163 31.0587 23.5798 30.9668 23.4826 30.8394C23.3854 30.712 23.3329 30.5561 23.3332 30.3958V29.6667C23.3335 29.3927 23.3145 29.1191 23.2763 28.8478L19.4817 29.865C19.3056 30.242 19.0256 30.561 18.6745 30.7844C18.3235 31.0079 17.916 31.1266 17.4999 31.1266C17.0837 31.1266 16.6762 31.0079 16.3252 30.7844C15.9742 30.561 15.6941 30.242 15.518 29.865L11.7234 28.8478ZM15.3999 28.3228C15.4974 27.9902 15.6725 27.6855 15.9108 27.4339C16.1492 27.1822 16.4439 26.9908 16.7707 26.8754V23.8785C15.748 24.0079 14.7777 24.4057 13.9584 25.0314C13.1392 25.6572 12.5001 26.4886 12.1062 27.4413L15.3999 28.3228ZM22.8935 27.4405C22.4995 26.488 21.8604 25.6567 21.0412 25.0311C20.2219 24.4055 19.2517 24.0078 18.229 23.8785V26.8747C18.8882 27.108 19.403 27.6476 19.5999 28.3236L22.8935 27.4405ZM24.459 26.9155C24.4342 26.823 24.4279 26.7265 24.4404 26.6316C24.4528 26.5366 24.4839 26.4451 24.5318 26.3621C24.5796 26.2792 24.6434 26.2065 24.7194 26.1482C24.7953 26.0899 24.882 26.0471 24.9746 26.0223L26.3833 25.6446C26.57 25.5947 26.7689 25.621 26.9362 25.7176C27.1036 25.8143 27.2257 25.9735 27.2758 26.1601L27.8424 28.2732C27.8672 28.3657 27.8735 28.4622 27.861 28.5572C27.8486 28.6521 27.8175 28.7437 27.7696 28.8266C27.7218 28.9096 27.658 28.9823 27.582 29.0406C27.5061 29.0989 27.4194 29.1417 27.3268 29.1665L25.9181 29.5442C25.8255 29.569 25.729 29.5753 25.634 29.5628C25.539 29.5502 25.4474 29.5191 25.3645 29.4712C25.2815 29.4232 25.2088 29.3594 25.1506 29.2833C25.0923 29.2073 25.0496 29.1205 25.0249 29.0279L24.459 26.9155ZM8.61425 25.6446C8.5217 25.6197 8.42515 25.6132 8.33011 25.6257C8.23508 25.6381 8.14342 25.6691 8.06039 25.717C7.97736 25.7649 7.90459 25.8287 7.84623 25.9047C7.78787 25.9807 7.74508 26.0675 7.72029 26.1601L7.15446 28.2725C7.12965 28.365 7.1233 28.4615 7.13578 28.5564C7.14826 28.6514 7.17932 28.743 7.2272 28.8259C7.27507 28.9089 7.33881 28.9816 7.41478 29.0399C7.49076 29.0982 7.57747 29.1409 7.66998 29.1657L9.07873 29.5434C9.17123 29.5683 9.26771 29.5746 9.36266 29.5621C9.45762 29.5496 9.54918 29.5186 9.63213 29.4707C9.71508 29.4228 9.78778 29.3591 9.84609 29.2831C9.9044 29.2071 9.94717 29.1204 9.97196 29.0279L10.5378 26.9148C10.5627 26.8223 10.5691 26.7257 10.5567 26.6307C10.5443 26.5356 10.5132 26.444 10.4654 26.3609C10.4175 26.2779 10.3537 26.2051 10.2777 26.1468C10.2016 26.0884 10.1149 26.0456 10.0223 26.0208L8.61425 25.6446ZM18.229 28.9375C18.229 29.1309 18.1522 29.3164 18.0155 29.4531C17.8787 29.5899 17.6933 29.6667 17.4999 29.6667C17.3065 29.6667 17.121 29.5899 16.9843 29.4531C16.8475 29.3164 16.7707 29.1309 16.7707 28.9375C16.7707 28.7441 16.8475 28.5587 16.9843 28.4219C17.121 28.2852 17.3065 28.2083 17.4999 28.2083C17.6933 28.2083 17.8787 28.2852 18.0155 28.4219C18.1522 28.5587 18.229 28.7441 18.229 28.9375Z" fill="#D9D9D9"/>
</svg>
